<svg width="720" height="154" viewBox="0 0 720 154" fill="none" xmlns="http://www.w3.org/2000/svg" role="img" aria-labelledby="title desc">
  <title id="title">Smart Business Value logo</title>
  <desc id="desc">Minimal luxury logo with brain, down arrow to briefcase, down arrow to dollar</desc>

  <defs>
    <linearGradient id="gold" x1="22" y1="22" x2="130" y2="130" gradientUnits="userSpaceOnUse">
      <stop stop-color="#F6E8C7"/>
      <stop offset="0.52" stop-color="#D5B878"/>
      <stop offset="1" stop-color="#AF8A4A"/>
    </linearGradient>
    <linearGradient id="goldText" x1="500" y1="58" x2="700" y2="104" gradientUnits="userSpaceOnUse">
      <stop stop-color="#F5E8C7"/>
      <stop offset="1" stop-color="#B68F52"/>
    </linearGradient>
  </defs>

  <rect x="22" y="24" width="108" height="108" rx="24" fill="#0B0D12"/>
  <rect x="22" y="24" width="108" height="108" rx="24" stroke="url(#gold)" stroke-width="2.5"/>

  <!-- Brain (top) -->
  <path d="M53 54.5C53 49.81 56.81 46 61.5 46C63.58 46 65.49 46.75 66.99 47.99C68.75 46.15 71.23 45 74 45C79.25 45 83.5 49.25 83.5 54.5C83.5 54.88 83.48 55.25 83.44 55.62C86.36 57.04 88.38 60.03 88.38 63.5C88.38 68.34 84.46 72.25 79.63 72.25H62C57.03 72.25 53 68.22 53 63.25V54.5Z" stroke="#F7F7F5" stroke-width="3.1" stroke-linecap="round" stroke-linejoin="round"/>
  <path d="M64 50.8V57.6M70 50.2V58.1M76 50.8V57.6" stroke="#F7F7F5" stroke-width="2" stroke-linecap="round"/>

  <!-- Arrow 1 -->
  <path d="M74.5 74V84" stroke="url(#gold)" stroke-width="2.6" stroke-linecap="round"/>
  <path d="M71.2 81.2L74.5 84.8L77.8 81.2" stroke="url(#gold)" stroke-width="2.6" stroke-linecap="round" stroke-linejoin="round"/>

  <!-- Briefcase (middle) -->
  <rect x="61" y="86" width="27" height="18" rx="4" stroke="#F7F7F5" stroke-width="3"/>
  <path d="M69 86V83.8C69 82.81 69.81 82 70.8 82H78.2C79.19 82 80 82.81 80 83.8V86" stroke="#F7F7F5" stroke-width="3" stroke-linecap="round"/>

  <!-- Arrow 2 -->
  <path d="M74.5 106V114" stroke="url(#gold)" stroke-width="2.6" stroke-linecap="round"/>
  <path d="M71.2 111.2L74.5 114.8L77.8 111.2" stroke="url(#gold)" stroke-width="2.6" stroke-linecap="round" stroke-linejoin="round"/>

  <!-- Dollar (bottom) -->
  <circle cx="74.5" cy="121" r="9.5" stroke="#F7F7F5" stroke-width="2.5"/>
  <path d="M74.5 114.6V127.4M78.1 117.5C78.1 116.45 77.25 115.6 76.2 115.6H73.7C72.65 115.6 71.8 116.45 71.8 117.5C71.8 118.55 72.65 119.4 73.7 119.4H75.7C76.75 119.4 77.6 120.25 77.6 121.3C77.6 122.35 76.75 123.2 75.7 123.2H73.2C72.15 123.2 71.3 122.35 71.3 121.3" stroke="url(#gold)" stroke-width="2.2" stroke-linecap="round" stroke-linejoin="round"/>

  <text x="152" y="88" fill="#F5F7FA" font-size="44" font-weight="500" letter-spacing="-0.4" font-family="'Cormorant Garamond','Didot','Bodoni MT','Times New Roman',serif">Smart Business</text>
  <text x="500" y="88" fill="url(#goldText)" font-size="44" font-weight="600" letter-spacing="-0.1" font-family="'Cormorant Garamond','Didot','Bodoni MT','Times New Roman',serif">Value</text>
</svg>
